<?xml version="1.0" encoding="UTF-8"?>
<svg id="Layer_2" data-name="Layer 2" xmlns="http://www.w3.org/2000/svg" width="338.62" height="288.09" xmlns:xlink="http://www.w3.org/1999/xlink" viewBox="0 0 338.62 288.09">
  <defs>
    <style>
      .cls-1 {
        fill: url(#New_Gradient_Swatch_2);
      }
    </style>
    <linearGradient id="New_Gradient_Swatch_2" data-name="New Gradient Swatch 2" x1="0" y1="144.05" x2="338.62" y2="144.05" gradientUnits="userSpaceOnUse">
      <stop offset="0" stop-color="#918bc3"/>
      <stop offset=".25" stop-color="#7f529e"/>
      <stop offset=".49" stop-color="#a54599"/>
      <stop offset=".74" stop-color="#e56ba6"/>
      <stop offset="1" stop-color="#eaa7b7"/>
    </linearGradient>
  </defs>
  <g id="Layer_2-2" data-name="Layer 2">
    <path class="cls-1" d="M316.88,99.72c-17.82-7.97-40.89-11.83-65.97-12.84,1.75-2.11,3.49-4.21,5.25-6.32,8.66-10.52,17.22-21.04,25.24-32.06-1.97-.74-3.83-1.7-5.56-2.87-7.94,10.36-16.96,19.96-25.82,29.47-3.72,3.87-7.47,7.7-11.28,11.5-2.89-.01-5.81,0-8.73.05.15-6.64-.02-13.21-.5-19.68,12.31-10.59,24.87-20.94,38.16-30.19,1.45-1.02,2.91-2.03,4.38-3.02.34-.21.69-.44,1.03-.66-.62-1.98-1.45-4.18-1.92-6.02.47,1.84,1.31,4.03,1.92,6.02.01,0,.03-.02.04-.03,1.58,3.03,3.89,5.5,6.62,7.29,1.72,1.13,3.62,1.97,5.61,2.51,1.7.46,3.47.71,5.26.7,2.24-.01,4.53-.42,6.75-1.25,10.11-3.79,15.25-15.12,11.47-25.23-3.8-10.13-15.12-15.27-25.23-11.47-8.89,3.33-13.93,12.45-12.45,21.48-.92.57-1.76,1.09-2.46,1.5-1.15.76-2.31,1.52-3.45,2.3-12.65,8.49-24.75,17.73-36.64,27.22-1.29-10.28-3.57-20.15-7.09-29.22-5.17-12.8-14.49-24.88-29.1-28.14-13.76-2.97-26.8,3.15-36.83,11.54-25.19,21.67-37.88,57.93-45.48,90.5-6.53,1.59-12.68,3.23-18.37,4.88-16.7,4.84-33.34,10.76-48.88,18.74-2.01,1.02-4.01,2.09-5.97,3.18-1.73-1.83-3.81-3.34-6.19-4.4-4.76-2.16-10.08-2.35-14.98-.51-4.9,1.84-8.8,5.47-10.96,10.24-2.16,4.77-2.34,10.09-.51,14.98.42,1.12.92,2.17,1.52,3.17,1.15,1.92,2.61,3.63,4.32,5.04,1.32,1.1,2.8,2.02,4.4,2.75,2.62,1.2,5.41,1.79,8.21,1.77,2.27-.01,4.56-.43,6.78-1.26,4.9-1.83,8.8-5.47,10.96-10.24,1.98-4.35,2.29-9.16.94-13.7,2.04-.83,4.1-1.6,6.17-2.35,8.77-3.19,17.78-5.79,26.74-8.36,10.71-3.02,21.54-5.66,32.46-7.95-2.87,17.03-4.94,34.59-5.6,52.2-6.02,5.87-11.98,11.8-17.89,17.8-2.22.05-4.45.09-6.66.11-5.13.03-10.24-.06-15.35-.27-14.39-.86-49.9-4.13-54.07-20.41-.13-1.32-.05-2.61.2-3.87-2.05-1.46-3.88-3.2-5.42-5.18-2.82,6.06-2.97,12.73,1.99,19.35,8.28,10.38,21.29,14.7,33.37,18.64,10.28,2.92,20.69,5.24,31.19,7.02-11.71,12.49-23.11,25.28-33.41,39.15-3.7,5.15-7.43,10.26-10.03,16.49-.8,1.87-1.73,5.15-1.56,7.71,0,6.7,5.91,11.98,12.36,11.81,4.92-.03,9.34-2.14,13.19-4.03,3.84-1.97,7.26-4.05,10.6-6.19,6.65-4.28,12.86-8.83,19-13.44,9.31-7.14,18.41-14.5,27.32-22.06,1.34,6.29,3.01,12.51,4.96,18.62,4.75,13.81,14.67,30.01,30.12,29.96-.88-1.43-1.61-2.94-2.21-4.53-.11-.3-.22-.59-.31-.89-16.75-3.85-21.6-30.33-23.1-45.07-.17-1.97-.3-3.95-.37-5.92v-.02c6.2-5.4,12.32-10.88,18.38-16.46h1.83c12.37-.08,24.74-.65,37.01-1.58,6.32-.61,12.72-1.35,19.18-2.22-4.55,12.87-9.99,25.43-16.17,37.57-.29.55-.59,1.11-.89,1.69-.95,1.84-1.98,3.79-3.1,5.82-4.72-2.11-9.99-2.27-14.84-.45-10.11,3.8-15.27,15.12-11.47,25.23.16.43.33.84.52,1.24.72,1.62,1.66,3.1,2.77,4.44,1.87,2.24,4.22,4.05,6.96,5.28,2.62,1.2,5.41,1.79,8.21,1.77,2.28-.01,4.57-.43,6.78-1.26,4.9-1.84,8.8-5.48,10.96-10.25,2.17-4.75,2.36-10.07.51-14.98-.56-1.51-1.31-2.93-2.19-4.24.02-.02.03-.04.05-.06-2.85-1.72-5.69-4.53-7.97-6.79,2.28,2.26,5.13,5.07,7.97,6.79,1.42-1.75,2.81-3.52,4.13-5.34,10.81-14.71,18.35-31.54,24.27-49,37.54-6.51,75.83-18.31,106.72-38.94,10.17-7.2,20.62-16.8,23.38-29.71,3.13-16.11-7.56-28.09-21.19-34.58ZM285.5,19.93c.69-.86,1.62-1.56,2.74-1.98.72-.26,1.47-.4,2.21-.4.92,0,1.83.19,2.69.58,1.57.7,2.76,1.98,3.37,3.59,1.2,3.24-.36,6.83-3.51,8.16-.07.04-.17.08-.25.11-2.08.78-4.31.41-5.99-.8-.9-.64-1.64-1.52-2.12-2.58-.05-.12-.11-.25-.16-.38-.83-2.2-.37-4.58,1.02-6.29ZM28.45,145.7c-.7,1.56-1.99,2.75-3.59,3.35-1.6.6-3.34.54-4.91-.17-.06-.02-.13-.05-.18-.09-1.47-.72-2.59-1.96-3.17-3.5-.24-.66-.38-1.33-.39-2-.06-.99.13-1.98.57-2.92.7-1.56,1.98-2.75,3.59-3.35.72-.26,1.48-.4,2.23-.4s1.52.12,2.24.4c.16.05.3.11.45.18,1.56.72,2.75,1.98,3.35,3.59.28.76.43,1.57.4,2.36,0,.87-.19,1.74-.57,2.56ZM36.75,129.73c2.31,1.72,4.06,4.59,4.65,7.46-.59-2.88-2.34-5.75-4.65-7.46ZM66.44,239.53c-3.48,2.55-6.97,5.19-10.5,7.74,2.72-3.59,5.5-7.08,8-10.21,8.32-10.11,16.82-20.11,25.45-29.97,4.23.47,8.48.84,12.73,1.13.07.87.17,1.73.25,2.6-11.82,9.82-23.78,19.41-35.93,28.72ZM165.63,274.49c-1.4.52-2.91.55-4.31.08-.21-.08-.41-.15-.61-.24-1.56-.71-2.75-1.99-3.35-3.59-.08-.21-.15-.44-.2-.66-.82-3.13.86-6.45,3.96-7.61.72-.27,1.48-.41,2.23-.41.26,0,.53.01.79.05.65.08,1.29.26,1.9.53,1.56.71,2.75,1.99,3.35,3.59.19.5.31,1,.35,1.51.04.24.05.46.06.7.01,2.61-1.58,5.08-4.17,6.06ZM160.43,56.38c5.65-8.61,16.39-25.64,26.37-26.93,6.32,1.06,10.75,11.31,13.24,17.83,3.12,9.32,5.25,18.97,6.61,28.78-5.14,4.27-10.24,8.58-15.35,12.93-17.59,1.72-34.97,4.32-51.18,7.35,5.71-13.95,12.22-27.29,20.31-39.95ZM152,169.76c.02,3.64-2.91,6.6-6.55,6.62h-2.63c-3.64.03-6.6-2.9-6.62-6.54v-2.63c-.03-3.64,2.9-6.6,6.54-6.62h2.63c3.64-.03,6.6,2.9,6.62,6.54v2.63ZM193.69,169.87c.02,3.45-2.76,6.26-6.21,6.28l-16.25.09c-3.45.02-6.26-2.76-6.28-6.21l-.06-11.07c0-1.66-.68-3.24-1.86-4.41l-5.21-5.15c-1.18-1.16-2.77-1.82-4.43-1.81l-11.07.06c-3.45.02-6.26-2.76-6.28-6.21l-.09-16.25c-.02-3.45,2.76-6.26,6.21-6.28l16.25-.09c3.45-.02,6.26,2.76,6.28,6.21l.06,11.07c0,1.65.67,3.24,1.86,4.41l5.2,5.15c1.18,1.16,2.77,1.81,4.43,1.8l11.07-.06c3.45-.02,6.26,2.76,6.28,6.21l.09,16.25ZM193.46,127.85c.02,3.64-2.91,6.6-6.55,6.62h-2.63c-3.64.03-6.6-2.9-6.62-6.54v-2.63c-.03-3.64,2.9-6.6,6.54-6.62h2.63c3.64-.03,6.6,2.9,6.62,6.54v2.63ZM206.2,87.72c.54-.5,1.07-.99,1.59-1.47.04.44.07.89.12,1.34-.57.04-1.12.09-1.7.12ZM312.3,128.39c-2.44,4.91-8.07,8.95-13.27,12.16-14.5,8.68-30.5,14.15-47.14,19.44-11.26,3.48-22.66,6.46-34.14,9.1.91-3.59,1.82-7.17,2.71-10.73,3.05-13.78,5.93-29.16,7.72-44.99,1.53-1.74,3.08-3.48,4.6-5.24,24.21,1.05,51.89,3.6,72.52,14.01,3.01,1.69,5.05,3.13,6.52,5.12.34.36.24.54.48.79v.09c-.03.06-.01.1.01.13.03.08-.1.11-.01.12Z"/>
  </g>
</svg>