<?xml version="1.0" encoding="UTF-8"?>
<svg id="Layer_1" data-name="Layer 1" xmlns="http://www.w3.org/2000/svg" width="1103.81" height="185.03" xmlns:xlink="http://www.w3.org/1999/xlink" viewBox="0 0 1103.81 185.03">
  <defs>
    <style>
      .cls-1 {
        fill: #df4f68;
      }

      .cls-2 {
        fill: url(#linear-gradient-2);
      }

      .cls-3 {
        fill: url(#linear-gradient-4);
      }

      .cls-4 {
        fill: url(#linear-gradient-3);
      }

      .cls-5 {
        fill: url(#linear-gradient-5);
      }

      .cls-6 {
        fill: #243338;
      }

      .cls-7 {
        fill: url(#linear-gradient-7);
      }

      .cls-8 {
        fill: url(#linear-gradient-6);
      }

      .cls-9 {
        fill: url(#linear-gradient);
      }
    </style>
    <linearGradient id="linear-gradient" x1="0" y1="663.65" x2="1505.1" y2="663.65" gradientUnits="userSpaceOnUse">
      <stop offset="0" stop-color="#e86f53"/>
      <stop offset="1" stop-color="#d62c75"/>
    </linearGradient>
    <linearGradient id="linear-gradient-2" x1="665.56" y1="683.03" x2="1101.73" y2="683.03" xlink:href="#linear-gradient"/>
    <linearGradient id="linear-gradient-3" x1="559.84" y1="764.38" x2="864.73" y2="764.38" xlink:href="#linear-gradient"/>
    <linearGradient id="linear-gradient-4" x1="592.71" y1="627.92" x2="633.58" y2="627.92" xlink:href="#linear-gradient"/>
    <linearGradient id="linear-gradient-5" x1="621.01" y1="639.61" x2="646.5" y2="639.61" xlink:href="#linear-gradient"/>
    <linearGradient id="linear-gradient-6" x1="642.3" y1="616.23" x2="759.64" y2="616.23" xlink:href="#linear-gradient"/>
    <linearGradient id="linear-gradient-7" x1="743.28" y1="624.69" x2="777.85" y2="624.69" xlink:href="#linear-gradient"/>
    <symbol id="New_Symbol" data-name="New Symbol" viewBox="0 0 1505.1 1327.29">
      <g>
        <path class="cls-9" d="M1132.97,807.39l172.53-1.96h4.67c-13.63,35.28-15.27,47.55-70.36,135.52-18.94,30.24-37.78,60.63-109.32,109.14-79.55,53.95-184.83,84.07-314.19,70.76-274.74-28.27-415.77-178.39-415.77-456.77s176.08-459.68,454.45-459.68c186.17,0,394.94,110.2,421.04,326.1l229.08-2.31C1447.17,144.04,1125.19,0,818.44,0c-90.89,0-180.2,18.42-255.72,43.94-.02,0-.04.01-.05.02-1.38.45-2.56.85-3.69,1.27-27.43,9.46-57.15,23.96-82.2,36.63-116.09,49.55-236.16,165.63-284.28,305.34-6.63,19.25-10.93,39.23-12.98,59.49l-2.07,20.4c-2.42,16.41-5.56,29.44-10.97,59.3-7.11,39.23-17.71,62.06-21.59,69.9-15.76,31.86-32.32,48.49-77.71,81.18-41.54,29.92-43.41,29.52-62.52,42.76-14.01,9.71,6.64,37.46,20.84,48.48,17.47,13.55,33.59,5.63,48.62,21.67,2.28,2.44,16.35,15.54,12.16,29.62-13.02,43.71-23.66,38.07-36.9,48.92-1.59,1.3-26.27,15.63-18.88,37.77,1.66,4.98,19.87,9.2,28.81,11.62,12.97,3.5,22.83,7.01,13.37,14.14-17.66,13.31-34.9,6.87-37.05,19.1-1.17,6.65,3.76,21.56,18.52,33.72,9.66,7.96,21.27,24.75,23.44,47.76,1.61,17.11-7.78,21.24-10.42,40.37-2.39,17.39,3.73,35.46,12.16,46.89,28.71,38.94,103.28,24,133.72,22.58,23.45-1.1,39.75-.26,59.48-1.74,59.17-4.44,76.59,16.55,95.47,30.98,3.92,3.26,7.88,6.46,11.89,9.62.09.07.17.14.26.22.28.23.56.44.83.64,110.26,86.2,233.1,137.33,437.44,143.72,56.4,1.76,113.03,2.24,168.7-8.28,177.31-33.48,340.13-136.78,431.51-294.31,62.37-107.52,83.26-223.52,85.86-346.36.02-1.13-1.67-8.87.61-8.85l-324.26-4.22-47.87,143.09Z"/>
        <g>
          <path class="cls-2" d="M988.93,520.29c62.85,9.3,107.35,58.31,112.24,121.56,9.98,128.93-116.02,248.59-217.58,308.73-4.06,2.41-8.46,5.18-12.87,6.83,46.45-36.39,85.57-82.01,116.28-132.38,29.86-48.98,66.25-128.07,50.03-185.95-23.47-83.74-148.25-52.46-202.49-20.04l-18.08,11.28c-.75-4.03-3.47-8.28-5.64-11.84-23.68-38.78-69.85-68.59-111.1-85.9l-34.17-13.03c52.11.37,105.2,10.13,151.27,34.88,28.9-13.6,58.92-25.1,90.34-31.54.53-.63,1.1-.5.33-1.11-27.51-21.62-32.12-61.12-10.73-88.84,29.21-37.85,89.21-30.06,108.41,13.47,11.49,26.06,4.22,54.85-16.25,73.85Z"/>
          <path class="cls-4" d="M733.2,757.44l-11-16.87c-8.9-16.17-15.41-32.88-13.43-51.8.83-7.92,6.97-22.37,15.96-23.49,9.76-1.21,8.85,12.02,10.19,17.97,7.85,34.83,64.12,78.22,89.74,102.8,39.03,37.45,48.7,82.89,32.71,134.58-6.43,20.79-17.11,42.12-30.49,59.08-3.46-40.77-24.79-68.28-54.26-94.05-22.36-19.55-46.78-36.96-69.5-56.13-68.6-57.89-166.54-149.45-138.29-249.76,1.39-4.92,9.06-27,12.28-29.35s10.12-1.75,11.41,2.74c.77,2.69-2.98,17.72-3.28,22.49-5.43,87.7,77.11,148.67,147.96,181.79Z"/>
          <path class="cls-3" d="M633.58,686.07c-10.04-11.57-19.5-25.34-26.88-38.9-3.6-6.61-13.51-26.27-13.97-32.92-.41-5.85,5.15-20.58,8.03-26.06s16.97-26.5,23.48-15.05c2.31,4.07-2.98,12.89-4.39,17.77-9.26,31.98,1.89,65.51,13.74,95.15Z"/>
          <path class="cls-5" d="M638.04,682.35c-1.3-.83-2.19-3.55-2.79-5-6.82-16.39-14.82-43.97-14.2-61.57.15-4.34,14.91-19.19,19.55-18.91,1.42.09,4.25,2.11,4.92,3.3,2.69,4.71-.87,7.41-2.41,11.05-10.08,23.87-9.7,45.9-5.07,71.13Z"/>
          <g>
            <path class="cls-8" d="M675.59,622.14l11.47-25.51c3.04-2.71,4.38.08,5.07,3.02,2.21,9.37,2.43,21.01,3.91,30.66,3.56-2.82,9-19.63,13.03-20.1.87-.1,1.7-.05,2.22.75l7.03,37.93,24.31-79.6c1.29-.7,3.04-.69,3.99.6,1.21,4.06,13.45,25.54,13,27.78-.43,2.12-2.85,3.07-4.5,1.43l-10.76-20.82-26.03,85.17c-1.18.6-3.13-.51-3.57-1.69l-6.84-41.11-10.8,19.29c-1.33,2.26-3.74,1.94-4.62-.51-2.57-7.13-1.79-20.24-3.9-28.06l-1.11-2.61c-.87-.38-6.59,15.86-7.76,17.31-.42.52-.77.84-1.46.95-10.36-.25-22.97,1.49-33.09.25-4.82-.59-2.26-5.13-1.54-5.13h31.97Z"/>
            <path class="cls-7" d="M750.1,608.93c6.34-1.29,9.65,4.27,10.23,4.27.34,0,3.79-3.57,5.54-4.09,7.06-2.13,12.18,3.66,11.96,10.41-.23,7.24-13.18,15.54-17.5,21.2-4.99-6.37-17.05-13.25-17.06-21.92,0-4.09,2.56-9,6.83-9.87Z"/>
          </g>
        </g>
      </g>
    </symbol>
  </defs>
  <g>
    <path class="cls-6" d="M269.82,92.49c0-29.11,18.94-46.27,46.66-46.27,21.99,0,38.52,10.55,44.49,29.24l-17.8.13c-4.45-9.15-13.35-13.73-26.7-13.73-19.96,0-29.87,10.42-29.87,30.64s9.79,30.38,29.87,30.38c12.71,0,20.72-4.2,25.55-12.2v-11.7h-32.93v-15.89l51.23.38v53.65h-18.31v-5.98c-5.98,5.09-15.51,7.5-25.55,7.5-27.97,0-46.66-17.29-46.66-46.15Z"/>
    <path class="cls-6" d="M367.84,92.49c0-29.11,18.94-46.27,46.66-46.27,23.26,0,40.43,11.95,45.13,32.93h-17.29c-3.43-10.93-12.84-17.29-27.84-17.29-19.96,0-29.87,10.42-29.87,30.64s9.79,30.38,29.87,30.38c15.13,0,24.28-5.98,27.84-16.91h17.29c-6.1,23.65-24.28,32.67-45.13,32.67-27.97,0-46.66-17.29-46.66-46.15Z"/>
    <path class="cls-6" d="M466.5,92.49c0-29.11,18.94-46.27,46.66-46.27s46.91,17.16,46.91,46.02-18.56,46.4-46.91,46.4-46.66-17.29-46.66-46.15ZM543.15,92.49c0-19.96-10.04-30.64-30-30.64s-29.88,10.42-29.88,30.64,9.79,30.38,29.88,30.38,30-10.81,30-30.38Z"/>
    <path class="cls-1" d="M590.24,92.49c0-29.11,18.94-46.27,46.66-46.27,23.26,0,40.43,11.95,45.13,32.93h-17.29c-3.43-10.93-12.84-17.29-27.84-17.29-19.96,0-29.88,10.42-29.88,30.64s9.79,30.38,29.88,30.38c15.13,0,24.28-5.98,27.84-16.91h17.29c-6.1,23.65-24.28,32.67-45.13,32.67-27.97,0-46.66-17.29-46.66-46.15ZM687.26,104.82c0-21.23,14.11-33.94,35.47-33.94s35.09,12.71,35.09,33.69-13.86,33.94-35.47,33.94-35.09-12.84-35.09-33.69ZM742.3,104.56c0-11.7-7.12-19.32-19.83-19.32s-19.7,7.5-19.7,19.45,6.87,19.32,19.7,19.32,19.83-7.5,19.83-19.45ZM765.26,71.89h15.38v7.88c4.2-5.47,12.97-8.64,20.72-8.9,17.16-.76,26.19,8.9,26.19,24.54v41.7h-15.51v-38.14c0-8.77-2.67-13.48-12.2-13.48-7.75,0-19.2,3.69-19.2,13.22v38.39h-15.38v-65.22ZM834.77,71.89h15.38v7.88c4.2-5.47,12.97-8.64,20.72-8.9,17.16-.76,26.19,8.9,26.19,24.54v41.7h-15.51v-38.14c0-8.77-2.67-13.48-12.2-13.48-7.75,0-19.2,3.69-19.2,13.22v38.39h-15.38v-65.22ZM903.9,104.94c0-21.48,13.86-34.07,35.59-34.07s34.83,12.46,34.83,33.82v3.56h-54.66c.76,8.64,7.12,15.76,19.45,15.76,8.9,0,14.62-3.56,17.16-9.92h17.03c-3.81,14.87-15.26,24.28-34.2,24.41-21.48.13-35.21-12.33-35.21-33.56ZM939.11,85.24c-7.25,0-15.51,3.3-18.43,12.97h36.99c-1.78-7.37-7.25-12.97-18.56-12.97ZM980.91,104.94c0-21.48,13.98-34.07,35.85-34.07,19.32,0,32.42,10.93,34.2,28.48h-15.51c-1.91-8.39-8.01-14.11-19.07-14.11-10.17,0-19.96,5.34-19.96,19.58,0,8.9,4.32,19.2,19.96,19.2,11.82,0,17.8-6.86,19.07-14.11h15.76c-2.54,17.8-15.38,28.6-34.83,28.6-22.37,0-35.47-12.33-35.47-33.56ZM1065.93,115.88v-28.22h-10.3v-14.11h10.3v-22.37h15.38v22.37h19.83v14.11h-19.83v29.11c0,9.53,10.93,7.25,18.69,5.59l3.81,12.59c-7.75,2.54-11.7,3.3-16.65,3.3-15.89,0-20.72-9.41-21.23-22.37Z"/>
  </g>
  <use width="1505.1" height="1327.29" transform="scale(.14)" xlink:href="#New_Symbol"/>
</svg>