<svg version="1.2" xmlns="http://www.w3.org/2000/svg" viewBox="0 0 874 330" width="874" height="330">
	<title>logo-gco-connect</title>
	<defs>
		<linearGradient id="g1" x2="1" gradientUnits="userSpaceOnUse" gradientTransform="matrix(210.714,0,0,185.819,332,108.911)">
			<stop offset="0" stop-color="#e86f53"/>
			<stop offset="1" stop-color="#d62c75"/>
		</linearGradient>
		<linearGradient id="g2" x2="1" gradientUnits="userSpaceOnUse" gradientTransform="matrix(61.064,0,0,76.836,425.178,111.624)">
			<stop offset="0" stop-color="#ffffff"/>
			<stop offset="1" stop-color="#ffffff"/>
		</linearGradient>
		<linearGradient id="g3" x2="1" gradientUnits="userSpaceOnUse" gradientTransform="matrix(42.685,0,0,60.292,410.378,123.013)">
			<stop offset="0" stop-color="#ffffff"/>
			<stop offset="1" stop-color="#ffffff"/>
		</linearGradient>
		<linearGradient id="g4" x2="1" gradientUnits="userSpaceOnUse" gradientTransform="matrix(5.722,0,0,16.277,414.979,103.909)">
			<stop offset="0" stop-color="#ffffff"/>
			<stop offset="1" stop-color="#ffffff"/>
		</linearGradient>
		<linearGradient id="g5" x2="1" gradientUnits="userSpaceOnUse" gradientTransform="matrix(3.569,0,0,11.973,418.941,105.545)">
			<stop offset="0" stop-color="#ffffff"/>
			<stop offset="1" stop-color="#ffffff"/>
		</linearGradient>
		<linearGradient id="g6" x2="1" gradientUnits="userSpaceOnUse" gradientTransform="matrix(16.428,0,0,13.274,421.922,102.272)">
			<stop offset="0" stop-color="#ffffff"/>
			<stop offset="1" stop-color="#ffffff"/>
		</linearGradient>
		<linearGradient id="g7" x2="1" gradientUnits="userSpaceOnUse" gradientTransform="matrix(4.84,0,0,4.488,436.059,103.457)">
			<stop offset="0" stop-color="#ffffff"/>
			<stop offset="1" stop-color="#ffffff"/>
		</linearGradient>
	</defs>
	<style>
		.s0 { fill: #e66856 } 
		.s1 { fill: #e25b5c } 
		.s2 { fill: #de4a65 } 
		.s3 { fill: #df4f68 } 
		.s4 { fill: url(#g1) } 
		.s5 { fill: url(#g2) } 
		.s6 { fill: url(#g3) } 
		.s7 { fill: url(#g4) } 
		.s8 { fill: url(#g5) } 
		.s9 { fill: url(#g6) } 
		.s10 { fill: url(#g7) } 
	</style>
	<g>
		<path class="s0" d="m19.8 283.5c0-29.1 19-46.3 46.7-46.3 22 0 38.5 10.6 44.5 29.3l-17.8 0.1q-6.7-13.7-26.7-13.7c-20 0-29.9 10.4-29.9 30.6 0 20.2 9.8 30.4 29.9 30.4 12.7 0 20.7-4.2 25.5-12.2v-11.7h-32.9v-15.9l51.2 0.4v53.6h-18.3v-6c-6 5.1-15.5 7.5-25.5 7.5-28 0-46.7-17.2-46.7-46.1z"/>
		<path class="s1" d="m117.8 283.5c0-29.1 19-46.3 46.7-46.3 23.3 0 40.4 12 45.1 32.9h-17.3c-3.4-10.9-12.8-17.2-27.8-17.2-20 0-29.9 10.4-29.9 30.6 0 20.2 9.8 30.4 29.9 30.4 15.1 0 24.3-6 27.8-16.9h17.3c-6.1 23.6-24.2 32.6-45.1 32.6-28 0-46.7-17.2-46.7-46.1z"/>
		<path class="s2" d="m216.5 283.5c0-29.1 18.9-46.3 46.7-46.3 27.7 0 46.9 17.2 46.9 46 0 28.9-18.6 46.4-46.9 46.4-28.4 0-46.7-17.2-46.7-46.1zm76.6 0c0-20-10-30.6-30-30.6-19.9 0-29.8 10.4-29.8 30.6 0 20.2 9.8 30.4 29.8 30.4 20.1 0 30-10.8 30-30.4z"/>
		<path class="s3" d="m340.2 283.5c0-29.1 19-46.3 46.7-46.3 23.3 0 40.4 12 45.1 32.9h-17.3c-3.4-10.9-12.8-17.2-27.8-17.2-20 0-29.9 10.4-29.9 30.6 0 20.2 9.8 30.4 29.9 30.4 15.1 0 24.3-6 27.8-16.9h17.3c-6.1 23.6-24.2 32.6-45.1 32.6-28 0-46.7-17.2-46.7-46.1zm97.1 12.3c0-21.2 14.1-33.9 35.4-33.9 21.4 0 35.1 12.7 35.1 33.7 0 20.9-13.8 33.9-35.4 33.9-21.7 0-35.1-12.8-35.1-33.7zm55-0.2c0-11.7-7.1-19.4-19.8-19.4-12.7 0-19.7 7.5-19.7 19.5 0 11.9 6.8 19.3 19.7 19.3 12.8 0 19.8-7.5 19.8-19.4zm23-32.7h15.3v7.9c4.2-5.5 13-8.7 20.8-8.9 17.1-0.8 26.2 8.9 26.2 24.5v41.7h-15.6v-38.1c0-8.8-2.6-13.5-12.2-13.5-7.7 0-19.2 3.7-19.2 13.2v38.4h-15.3c0 0 0-65.2 0-65.2zm69.5 0h15.3v7.9c4.3-5.5 13-8.7 20.8-8.9 17.1-0.8 26.2 8.9 26.2 24.5v41.7h-15.5v-38.1c0-8.8-2.7-13.5-12.2-13.5-7.8 0-19.3 3.7-19.3 13.2v38.4h-15.3c0 0 0-65.2 0-65.2zm69.1 33c0-21.4 13.9-34 35.6-34 21.7 0 34.8 12.4 34.8 33.8v3.6h-54.6c0.7 8.6 7.1 15.7 19.4 15.7 8.9 0 14.6-3.6 17.2-9.9h17c-3.8 14.9-15.3 24.3-34.2 24.4-21.5 0.1-35.2-12.3-35.2-33.6zm35.2-19.7c-7.2 0-15.5 3.3-18.4 13h37c-1.8-7.4-7.3-13-18.6-13zm41.8 19.7c0-21.4 14-34 35.9-34 19.3 0 32.4 10.9 34.2 28.5h-15.5c-2-8.4-8.1-14.2-19.1-14.2-10.2 0-20 5.4-20 19.6 0 8.9 4.3 19.2 20 19.2 11.8 0 17.8-6.8 19.1-14.1h15.7c-2.5 17.8-15.4 28.6-34.8 28.6-22.4 0-35.5-12.3-35.5-33.5zm85 10.9v-28.2h-10.3v-14.1h10.3v-22.4h15.4v22.4h19.8v14.1h-19.8v29.1c0 9.5 10.9 7.2 18.7 5.6l3.8 12.6c-7.7 2.5-11.7 3.3-16.6 3.3-15.9 0-20.8-9.4-21.3-22.4z"/>
	</g>
	<g id="New_Symbol">
		<g>
			<path class="s4" d="m490.6 129l24.2-0.2h0.6c-1.9 4.9-2.1 6.6-9.8 18.9-2.7 4.3-5.3 8.5-15.3 15.3-11.2 7.6-25.9 11.8-44 9.9-38.5-3.9-58.2-25-58.2-63.9 0-39 24.6-64.4 63.6-64.4 26.1 0 55.3 15.4 58.9 45.7l32.1-0.4c-8.1-53.7-53.2-73.9-96.1-73.9-12.7 0-25.2 2.6-35.8 6.2q0 0 0 0-0.3 0-0.5 0.1c-3.9 1.4-8 3.4-11.6 5.2-16.2 6.9-33 23.1-39.7 42.7-1 2.7-1.6 5.5-1.9 8.3l-0.3 2.9c-0.3 2.3-0.7 4.1-1.5 8.3-1 5.5-2.5 8.7-3 9.8-2.2 4.4-4.5 6.8-10.9 11.3-5.8 4.2-6.1 4.2-8.7 6-2 1.4 0.9 5.3 2.9 6.8 2.4 1.9 4.7 0.8 6.8 3.1 0.3 0.3 2.3 2.1 1.7 4.1-1.8 6.1-3.3 5.3-5.2 6.8-0.2 0.2-3.7 2.2-2.6 5.3 0.2 0.7 2.8 1.3 4 1.7 1.8 0.5 3.2 0.9 1.9 1.9-2.5 1.9-4.9 1-5.2 2.7-0.2 0.9 0.5 3 2.6 4.7 1.3 1.2 3 3.5 3.3 6.7 0.2 2.4-1.1 3-1.5 5.7-0.3 2.4 0.5 4.9 1.7 6.5 4 5.5 14.5 3.4 18.7 3.2 3.3-0.2 5.6 0 8.4-0.2 8.2-0.7 10.7 2.3 13.3 4.3q0.8 0.7 1.7 1.3 0 0.1 0 0.1 0.1 0 0.1 0.1c15.5 12 32.7 19.2 61.3 20.1 7.9 0.2 15.8 0.3 23.6-1.2 24.8-4.7 47.6-19.1 60.4-41.2 8.7-15 11.7-31.3 12-48.5 0-0.1-0.2-1.2 0.1-1.2l-45.4-0.6c0 0-6.7 20-6.7 20z"/>
			<g>
				<path class="s5" d="m470.5 88.8c8.7 1.3 15 8.2 15.7 17.1 1.4 18-16.3 34.8-30.5 43.2-0.6 0.3-1.2 0.7-1.8 0.9 6.5-5.1 12-11.4 16.3-18.5 4.2-6.9 9.3-17.9 7-26-3.3-11.8-20.8-7.4-28.4-2.8l-2.5 1.5c-0.1-0.5-0.5-1.1-0.8-1.6-3.3-5.4-9.8-9.6-15.5-12l-4.8-1.9c7.3 0.1 14.7 1.5 21.2 4.9 4-1.9 8.2-3.5 12.6-4.4 0.1-0.1 0.2-0.1 0-0.2-3.8-3-4.4-8.5-1.5-12.4 4.1-5.3 12.5-4.2 15.2 1.9 1.6 3.6 0.6 7.7-2.3 10.3z"/>
				<path class="s6" d="m434.6 122l-1.5-2.3c-1.2-2.3-2.1-4.6-1.9-7.3 0.1-1.1 1-3.1 2.3-3.3 1.3-0.1 1.2 1.7 1.4 2.6 1.1 4.8 9 10.9 12.6 14.3 5.4 5.3 6.8 11.7 4.5 18.9-0.9 2.9-2.4 5.9-4.2 8.3-0.5-5.7-3.5-9.6-7.6-13.2-3.2-2.7-6.6-5.2-9.8-7.9-9.6-8.1-23.3-20.9-19.3-34.9 0.2-0.7 1.2-3.8 1.7-4.1 0.4-0.4 1.4-0.3 1.6 0.3 0.1 0.4-0.4 2.5-0.5 3.2-0.7 12.3 10.8 20.8 20.7 25.4z"/>
				<path class="s7" d="m420.7 112c-1.4-1.6-2.7-3.5-3.8-5.4-0.5-0.9-1.9-3.7-1.9-4.6-0.1-0.8 0.7-2.9 1.1-3.7 0.4-0.7 2.4-3.7 3.3-2.1 0.3 0.6-0.4 1.8-0.6 2.5-1.3 4.5 0.2 9.2 1.9 13.3z"/>
				<path class="s8" d="m421.3 111.5c-0.2-0.1-0.3-0.5-0.4-0.7-0.9-2.3-2-6.1-2-8.6 0.1-0.6 2.1-2.7 2.8-2.6 0.2 0 0.6 0.3 0.7 0.4 0.3 0.7-0.1 1.1-0.4 1.6-1.4 3.3-1.3 6.4-0.7 9.9z"/>
				<g>
					<path class="s9" d="m426.6 103.1l1.6-3.6c0.4-0.4 0.6 0 0.7 0.5 0.3 1.3 0.3 2.9 0.5 4.2 0.5-0.4 1.3-2.7 1.9-2.8 0.1 0 0.2 0 0.3 0.1l1 5.3 3.4-11.1c0.1-0.1 0.4-0.1 0.5 0.1 0.2 0.6 1.9 3.6 1.8 3.9 0 0.3-0.4 0.4-0.6 0.2l-1.5-2.9-3.6 11.9c-0.2 0.1-0.5-0.1-0.5-0.3l-1-5.7-1.5 2.7c-0.2 0.3-0.5 0.3-0.6-0.1-0.4-1-0.3-2.8-0.6-3.9l-0.2-0.4c-0.1 0-0.9 2.2-1 2.4q-0.1 0.2-0.2 0.2c-1.5-0.1-3.3 0.2-4.7 0-0.6-0.1-0.3-0.7-0.2-0.7h4.5z"/>
					<path class="s10" d="m437 101.3c0.9-0.2 1.4 0.5 1.4 0.5 0.1 0 0.6-0.5 0.8-0.5 1-0.3 1.7 0.5 1.7 1.4 0 1-1.8 2.2-2.5 3-0.7-0.9-2.3-1.9-2.3-3.1 0-0.5 0.3-1.2 0.9-1.3z"/>
				</g>
			</g>
		</g>
	</g>
</svg>